<svg width="1544" height="500" viewBox="0 0 1544 500"
     xmlns="http://www.w3.org/2000/svg"
     xmlns:xlink="http://www.w3.org/1999/xlink">
  <defs>
    <linearGradient id="bg" x1="0" y1="0" x2="1" y2="1">
      <stop offset="0%" stop-color="#f4f1eb"/>
      <stop offset="100%" stop-color="#e7dfd2"/>
    </linearGradient>

    <linearGradient id="panel" x1="0" y1="0" x2="1" y2="1">
      <stop offset="0%" stop-color="#ffffff"/>
      <stop offset="100%" stop-color="#f7f5f1"/>
    </linearGradient>

    <linearGradient id="accent" x1="0" y1="0" x2="1" y2="1">
      <stop offset="0%" stop-color="#2f4858"/>
      <stop offset="100%" stop-color="#486b7d"/>
    </linearGradient>

    <filter id="shadow" x="-20%" y="-20%" width="140%" height="140%">
      <feOffset in="SourceAlpha" dx="0" dy="8" result="off"/>
      <feGaussianBlur in="off" stdDeviation="12" result="blur"/>
      <feColorMatrix in="blur" type="matrix"
        values="0 0 0 0 0
                0 0 0 0 0
                0 0 0 0 0
                0 0 0 0.14 0" result="shadow"/>
      <feMerge>
        <feMergeNode in="shadow"/>
        <feMergeNode in="SourceGraphic"/>
      </feMerge>
    </filter>

    <clipPath id="shotLeftClip">
      <rect x="{{SHOT1_X}}" y="{{SHOT1_Y}}" width="{{SHOT1_WIDTH}}" height="{{SHOT1_HEIGHT}}" rx="{{SHOT1_RADIUS}}"/>
    </clipPath>

    <clipPath id="shotRightClip">
      <rect x="{{SHOT2_X}}" y="{{SHOT2_Y}}" width="{{SHOT2_WIDTH}}" height="{{SHOT2_HEIGHT}}" rx="{{SHOT2_RADIUS}}"/>
    </clipPath>
  </defs>

  <rect width="1544" height="500" fill="url(#bg)"/>

  <g opacity="0.08" stroke="#2f4858" fill="none">
    <circle cx="1320" cy="120" r="64" stroke-width="2"/>
    <circle cx="1320" cy="120" r="92" stroke-width="2"/>
    <circle cx="1320" cy="120" r="120" stroke-width="2"/>
    <line x1="1200" y1="120" x2="1440" y2="120" stroke-width="2"/>
    <line x1="1320" y1="0" x2="1320" y2="240" stroke-width="2"/>
    <line x1="1235" y1="35" x2="1405" y2="205" stroke-width="2"/>
    <line x1="1405" y1="35" x2="1235" y2="205" stroke-width="2"/>
  </g>

  <g transform="translate(64,64)">
    <rect x="0" y="0" width="118" height="118" rx="24" fill="#ffffff" filter="url(#shadow)"/>
    <image href="{{ICON_RENDER_FILE}}" xlink:href="{{ICON_RENDER_FILE}}"
           x="19" y="19" width="80" height="80"
           preserveAspectRatio="xMidYMid meet"/>

    <text x="146" y="50"
          font-family="Arial, sans-serif"
          font-size="52"
          font-weight="700"
          fill="#1f2937">{{APP_NAME}}</text>

    <text x="146" y="96"
          font-family="Arial, sans-serif"
          font-size="24"
          font-weight="400"
          fill="#5b6472">{{TAGLINE}}</text>

    <text x="146" y="142"
          font-family="Arial, sans-serif"
          font-size="22"
          font-weight="400"
          fill="#6c5841">{{SUBLINE}}</text>
  </g>

  <g transform="translate(78,228)">
    <rect x="0" y="0" width="760" height="186" rx="26" fill="url(#panel)" filter="url(#shadow)"/>

    <text x="34" y="46"
          font-family="Arial, sans-serif"
          font-size="26"
          font-weight="700"
          fill="#1f2937">{{FEATURE_TITLE}}</text>

    <rect x="34" y="68" width="160" height="38" rx="19" fill="#e9eef1"/>
    <text x="54" y="93" font-family="Arial, sans-serif" font-size="19" font-weight="700" fill="#2f4858">{{CHIP1}}</text>

    <rect x="218" y="68" width="136" height="38" rx="19" fill="#eef2f5"/>
    <text x="245" y="93" font-family="Arial, sans-serif" font-size="19" font-weight="700" fill="#40596a">{{CHIP2}}</text>

    <rect x="378" y="68" width="194" height="38" rx="19" fill="#eef2f5"/>
    <text x="404" y="93" font-family="Arial, sans-serif" font-size="19" font-weight="700" fill="#40596a">{{CHIP3}}</text>

    <rect x="596" y="68" width="156" height="38" rx="19" fill="#eef2f5"/>
    <text x="621" y="93" font-family="Arial, sans-serif" font-size="19" font-weight="700" fill="#40596a">{{CHIP4}}</text>

    <line x1="194" y1="87" x2="218" y2="87" stroke="#8ca0ad" stroke-width="3"/>
    <line x1="354" y1="87" x2="378" y2="87" stroke="#8ca0ad" stroke-width="3"/>
    <line x1="572" y1="87" x2="596" y2="87" stroke="#8ca0ad" stroke-width="3"/>

    <text x="36" y="136" font-family="Arial, sans-serif" font-size="21" fill="#374151">{{FEATURE_LEFT_1}}</text>
    <text x="36" y="168" font-family="Arial, sans-serif" font-size="21" fill="#374151">{{FEATURE_LEFT_2}}</text>
    <text x="388" y="136" font-family="Arial, sans-serif" font-size="21" fill="#374151">{{FEATURE_RIGHT_1}}</text>
    <text x="388" y="168" font-family="Arial, sans-serif" font-size="21" fill="#374151">{{FEATURE_RIGHT_2}}</text>
  </g>

  <g filter="url(#shadow)">
    <rect x="910" y="44" width="310" height="360" rx="24" fill="#ffffff"/>
    <rect x="{{SHOT1_X}}" y="{{SHOT1_Y}}" width="{{SHOT1_WIDTH}}" height="{{SHOT1_HEIGHT}}" rx="{{SHOT1_RADIUS}}" fill="#edf1f4"/>
    <image href="{{SCREENSHOT1}}" xlink:href="{{SCREENSHOT1}}"
           x="{{SHOT1_X}}" y="{{SHOT1_Y}}"
           width="{{SHOT1_WIDTH}}" height="{{SHOT1_HEIGHT}}"
           preserveAspectRatio="{{SHOT1_FIT}}"
           clip-path="url(#shotLeftClip)"/>
    <text x="930" y="390"
          font-family="Arial, sans-serif"
          font-size="18"
          fill="#4b5563">{{SCREENSHOT1_LABEL}}</text>
  </g>

  <g filter="url(#shadow)">
    <rect x="1210" y="92" width="280" height="250" rx="24" fill="#ffffff"/>
    <rect x="{{SHOT2_X}}" y="{{SHOT2_Y}}" width="{{SHOT2_WIDTH}}" height="{{SHOT2_HEIGHT}}" rx="{{SHOT2_RADIUS}}" fill="#edf1f4"/>
    <image href="{{SCREENSHOT2}}" xlink:href="{{SCREENSHOT2}}"
           x="{{SHOT2_X}}" y="{{SHOT2_Y}}"
           width="{{SHOT2_WIDTH}}" height="{{SHOT2_HEIGHT}}"
           preserveAspectRatio="{{SHOT2_FIT}}"
           clip-path="url(#shotRightClip)"/>
    <text x="1230" y="326"
          font-family="Arial, sans-serif"
          font-size="18"
          fill="#4b5563">{{SCREENSHOT2_LABEL}}</text>
  </g>

  <rect x="0" y="472" width="1544" height="28" fill="url(#accent)"/>
</svg>